<svg xmlns="http://www.w3.org/2000/svg" xmlns:xlink="http://www.w3.org/1999/xlink" data-name="Layer 1" viewBox="0 0 427.13 132.79">
  <defs>
    <linearGradient id="cTudO0TPda" x1="60.84" x2="60.84" y2="132.79" gradientUnits="userSpaceOnUse">
      <stop offset="0" stop-color="#0091ff"/>
      <stop offset="1" stop-color="#3e63dd"/>
    </linearGradient>
    <linearGradient id="cTudO0TPdb" x1="157.03" y1="45.79" x2="157.03" y2="85.41" xlink:href="#cTudO0TPda"/>
    <linearGradient id="cTudO0TPdc" x1="199.9" y1="45.79" x2="199.9" y2="85.41" xlink:href="#cTudO0TPda"/>
    <linearGradient id="cTudO0TPdd" x1="232.1" y1="29.57" x2="232.1" y2="84.86" xlink:href="#cTudO0TPda"/>
    <linearGradient id="cTudO0TPde" x1="265.71" y1="45.93" x2="265.71" y2="84.86" xlink:href="#cTudO0TPda"/>
    <linearGradient id="cTudO0TPdf" x1="296.29" y1="29.57" x2="296.29" y2="103.22" xlink:href="#cTudO0TPda"/>
    <linearGradient id="cTudO0TPdg" x1="331.05" y1="45.79" x2="331.05" y2="85.41" xlink:href="#cTudO0TPda"/>
    <linearGradient id="cTudO0TPdh" x1="371.94" y1="45.79" x2="371.94" y2="85.41" xlink:href="#cTudO0TPda"/>
    <linearGradient id="cTudO0TPdi" x1="410.46" y1="45.79" x2="410.46" y2="85.41" xlink:href="#cTudO0TPda"/>
  </defs>
  <path d="M97.18 115.29a73.93 73.93 0 01-.23 9.09 68 68 0 01-19.86 8.41 49.13 49.13 0 001.62-8.12 53.35 53.35 0 00-.6-16.84 46.91 46.91 0 00-2.11-7.54 45.69 45.69 0 00-4.84-9.11l-.37-.54a81.88 81.88 0 00-5-6.59c-3.54-4.26-7.58-8.55-11.72-13-1.22-1.31-2.46-2.62-3.68-3.94a159.6 159.6 0 01-15.27-18.33 9 9 0 00-7.64-4.21 8.84 8.84 0 00-2.08.24 9.06 9.06 0 00-6.14 5l-.21.49c-.07.18-.14.38-.2.57a44.79 44.79 0 0042 60.35c1.44 0 2.86-.07 4.27-.2a40.92 40.92 0 01-.41 16.14c-1.28.08-2.57.12-3.86.12A60.84 60.84 0 0124.36 17.81a68.29 68.29 0 01.15-9.45A68 68 0 0144.26 0c0 .14-.08.27-.11.41l-.06.23a50.47 50.47 0 00-.37 24.43 35.7 35.7 0 001.16 3.74.42.42 0 000 .1 34.43 34.43 0 002.12 4.7c4.67 8.53 12.23 16.57 20.24 25.08 7 7.48 14.26 15.15 19.68 23.52.07.13.15.25.23.37l.24.36a9 9 0 007.37 3.81h.52a9 9 0 008.18-6.58 44.8 44.8 0 00-42.62-58.45c-1.48 0-2.93.07-4.37.21a36.54 36.54 0 01-.08-16.1c1.46-.11 3-.16 4.45-.16a60.84 60.84 0 0136.34 109.62z" fill="url(#cTudO0TPda)"/>
  <path d="M140.57 55.11a17 17 0 016.83-6.9 20.39 20.39 0 0110-2.42 19.09 19.09 0 0112.11 3.8A17.91 17.91 0 01176 60.28h-12.62a6 6 0 00-6.14-4.41 6.2 6.2 0 00-5.18 2.52q-1.94 2.52-1.93 7.21t1.93 7.21a6.2 6.2 0 005.18 2.52 6 6 0 006.14-4.42H176a18.1 18.1 0 01-6.42 10.63 18.9 18.9 0 01-12.08 3.87 20.39 20.39 0 01-10-2.42 17 17 0 01-6.83-6.9 21.59 21.59 0 01-2.45-10.49 21.59 21.59 0 012.35-10.49z" fill="url(#cTudO0TPdb)"/>
  <path d="M189.58 83a17.68 17.68 0 01-7.11-6.9 20.58 20.58 0 01-2.59-10.49 20.46 20.46 0 012.62-10.46 17.86 17.86 0 017.18-6.93 22.77 22.77 0 0120.43 0 17.8 17.8 0 017.18 6.93 20.47 20.47 0 012.63 10.46 20.29 20.29 0 01-2.66 10.46A18 18 0 01210 83a21.57 21.57 0 01-10.25 2.42A21.15 21.15 0 01189.58 83zm15.94-10.28q2.39-2.49 2.39-7.11c0-3.08-.78-5.45-2.32-7.11a7.85 7.85 0 00-11.42 0q-2.28 2.45-2.28 7.14t2.24 7.11a7.25 7.25 0 005.63 2.48 7.66 7.66 0 005.76-2.52z" fill="url(#cTudO0TPdc)"/>
  <path d="M227.06 40.51a5.94 5.94 0 01-2-4.52 6 6 0 012-4.59 7.14 7.14 0 015.07-1.83 7.06 7.06 0 015 1.83 6 6 0 012 4.59 5.94 5.94 0 01-2 4.52 7.06 7.06 0 01-5 1.83 7.14 7.14 0 01-5.07-1.83zM238 46.34v38.52h-11.8V46.34z" fill="url(#cTudO0TPdd)"/>
  <path d="M280.83 50.31q4 4.38 4 12v22.5h-11.7V63.94a8.43 8.43 0 00-2-6 7.85 7.85 0 00-10.77 0 8.48 8.48 0 00-2 6v20.92h-11.8V46.34h11.8v5.11a12.54 12.54 0 014.83-4 15.4 15.4 0 016.81-1.52 14 14 0 0110.83 4.38z" fill="url(#cTudO0TPde)"/>
  <path d="M304.89 89.83q0 7.11-3.59 10.25t-10 3.14h-4.63v-10h2.83a4 4 0 002.76-.76 3.2 3.2 0 00.83-2.48V46.34h11.81zm-11-49.32a5.91 5.91 0 01-2-4.52 6 6 0 012-4.59 7.14 7.14 0 015.11-1.83 7.05 7.05 0 015 1.83 6 6 0 012 4.59 5.91 5.91 0 01-2 4.52 7.05 7.05 0 01-5 1.83 7.14 7.14 0 01-5.12-1.83z" fill="url(#cTudO0TPdf)"/>
  <path d="M320.73 83a17.62 17.62 0 01-7.11-6.9A20.58 20.58 0 01311 65.6a20.46 20.46 0 012.62-10.46 17.8 17.8 0 017.18-6.93 22.77 22.77 0 0120.43 0 17.8 17.8 0 017.18 6.93 20.46 20.46 0 012.62 10.46 20.28 20.28 0 01-2.65 10.46 18 18 0 01-7.22 6.94 21.57 21.57 0 01-10.25 2.42A21.12 21.12 0 01320.73 83zm15.94-10.28q2.38-2.49 2.38-7.11t-2.31-7.11a7.85 7.85 0 00-11.42 0Q323 60.91 323 65.6t2.24 7.11a7.25 7.25 0 005.63 2.48 7.68 7.68 0 005.8-2.48z" fill="url(#cTudO0TPdg)"/>
  <path d="M364 83.69a15.45 15.45 0 01-6.17-4.69 12.52 12.52 0 01-2.56-6.73h11.67a4.5 4.5 0 001.86 3.24 6.59 6.59 0 004.07 1.24 5.76 5.76 0 003.42-.86 2.62 2.62 0 001.21-2.24 2.59 2.59 0 00-1.73-2.45 34.21 34.21 0 00-5.59-1.76 53.82 53.82 0 01-6.9-2 11.87 11.87 0 01-4.76-3.44 9.2 9.2 0 01-2-6.25 10.67 10.67 0 011.82-6 12.32 12.32 0 015.39-4.31 20.59 20.59 0 018.45-1.59c4.84 0 8.64 1.2 11.43 3.59a14 14 0 014.8 9.52H377.5a4.68 4.68 0 00-1.76-3.17 6.12 6.12 0 00-3.9-1.17 5.41 5.41 0 00-3.18.79 2.54 2.54 0 00-1.1 2.17 2.66 2.66 0 001.76 2.42 28.71 28.71 0 005.49 1.66 60 60 0 017 2.17 12 12 0 014.73 3.45 9.79 9.79 0 012.1 6.39 10.13 10.13 0 01-1.9 6 12.5 12.5 0 01-5.45 4.17 20.9 20.9 0 01-8.29 1.57 22.12 22.12 0 01-9-1.72z" fill="url(#cTudO0TPdh)"/>
  <path d="M402.56 83.69a15.42 15.42 0 01-6.22-4.69 12.43 12.43 0 01-2.55-6.73h11.66a4.48 4.48 0 001.87 3.24 6.57 6.57 0 004.07 1.24 5.8 5.8 0 003.42-.86 2.64 2.64 0 001.19-2.28 2.59 2.59 0 00-1.73-2.45 34.55 34.55 0 00-5.59-1.76 53.82 53.82 0 01-6.9-2A12 12 0 01397 64a9.25 9.25 0 01-2-6.25 10.61 10.61 0 011.83-6 12.27 12.27 0 015.39-4.31 20.52 20.52 0 018.45-1.59q7.24 0 11.42 3.59a13.92 13.92 0 014.8 9.52H416a4.73 4.73 0 00-1.77-3.17 6.09 6.09 0 00-3.89-1.17 5.39 5.39 0 00-3.18.79 2.52 2.52 0 00-1.1 2.17 2.64 2.64 0 001.78 2.42 28.79 28.79 0 005.48 1.66 58.81 58.81 0 017 2.17 11.88 11.88 0 014.68 3.46 9.79 9.79 0 012.11 6.39 10.2 10.2 0 01-1.9 6 12.55 12.55 0 01-5.45 4.17 20.9 20.9 0 01-8.25 1.52 22.12 22.12 0 01-8.95-1.68z" fill="url(#cTudO0TPdi)"/>
</svg>
