<svg xmlns="http://www.w3.org/2000/svg" fill="none" viewBox="0 0 428 133">
  <g clip-path="url(#bAE_On0R3a)" fill="#fff">
    <path d="M97.18 115.29c.11 3.032.033 6.068-.23 9.09a68.001 68.001 0 01-19.86 8.41 49.141 49.141 0 001.62-8.12c.693-5.61.49-11.294-.6-16.84a46.901 46.901 0 00-2.11-7.54 45.697 45.697 0 00-4.84-9.11l-.37-.54a81.893 81.893 0 00-5-6.59c-3.54-4.26-7.58-8.55-11.72-13-1.22-1.31-2.46-2.62-3.68-3.94a159.592 159.592 0 01-15.27-18.33 9 9 0 00-7.64-4.21 9.06 9.06 0 00-8.22 5.24l-.21.49c-.07.18-.14.38-.2.57a44.79 44.79 0 0042 60.35c1.44 0 2.86-.07 4.27-.2a40.921 40.921 0 01-.41 16.14A60.844 60.844 0 013.202 85.68 60.84 60.84 0 0124.36 17.81a68.286 68.286 0 01.15-9.45A67.999 67.999 0 0144.26 0c0 .14-.08.27-.11.41l-.06.23a50.47 50.47 0 00-.37 24.43 35.69 35.69 0 001.16 3.74.418.418 0 000 .1 34.422 34.422 0 002.12 4.7c4.67 8.53 12.23 16.57 20.24 25.08 7 7.48 14.26 15.15 19.68 23.52.07.13.15.25.23.37l.24.36a9 9 0 007.37 3.81h.52a9.002 9.002 0 008.18-6.58 44.787 44.787 0 001.556-20.797 44.789 44.789 0 00-23.9-32.776A44.8 44.8 0 0056.47 21.93a36.54 36.54 0 01-.08-16.1 60.84 60.84 0 0140.79 109.46zm43.39-60.18a17.003 17.003 0 016.83-6.9 20.392 20.392 0 0110-2.42 19.09 19.09 0 0112.11 3.8A17.91 17.91 0 01176 60.28h-12.62a5.998 5.998 0 00-6.14-4.41 6.198 6.198 0 00-5.18 2.52c-1.293 1.68-1.937 4.083-1.93 7.21.007 3.127.65 5.53 1.93 7.21a6.194 6.194 0 005.18 2.52 5.999 5.999 0 006.14-4.42H176a18.096 18.096 0 01-6.42 10.63 18.901 18.901 0 01-12.08 3.87 20.392 20.392 0 01-10-2.42 17.003 17.003 0 01-6.83-6.9 21.587 21.587 0 01-2.45-10.49 21.589 21.589 0 012.35-10.49zM189.58 83a17.68 17.68 0 01-7.11-6.9 20.586 20.586 0 01-2.59-10.49 20.457 20.457 0 012.62-10.46 17.86 17.86 0 017.18-6.93 22.77 22.77 0 0120.43 0 17.804 17.804 0 017.18 6.93 20.472 20.472 0 012.63 10.46 20.287 20.287 0 01-2.66 10.46A18 18 0 01210 83a21.57 21.57 0 01-10.25 2.42A21.149 21.149 0 01189.58 83zm15.94-10.28c1.593-1.66 2.39-4.03 2.39-7.11s-.78-5.45-2.32-7.11a7.851 7.851 0 00-11.42 0c-1.52 1.633-2.28 4.013-2.28 7.14s.747 5.497 2.24 7.11a7.248 7.248 0 005.63 2.48 7.653 7.653 0 005.76-2.52v.01zm21.54-32.21a5.942 5.942 0 01-2-4.52 6 6 0 012-4.59 7.14 7.14 0 015.07-1.83 7.06 7.06 0 015 1.83 6 6 0 012 4.59 5.942 5.942 0 01-2 4.52 7.06 7.06 0 01-5 1.83 7.14 7.14 0 01-5.07-1.83zM238 46.34v38.52h-11.8V46.34H238zm42.83 3.97c2.667 2.92 4 6.92 4 12v22.5h-11.7V63.94a8.432 8.432 0 00-2-6 7.85 7.85 0 00-10.77 0 8.482 8.482 0 00-2 6v20.92h-11.8V46.34h11.8v5.11a12.536 12.536 0 014.83-4 15.403 15.403 0 016.81-1.52 14.003 14.003 0 0110.83 4.38zm24.06 39.52c0 4.74-1.197 8.157-3.59 10.25s-5.727 3.14-10 3.14h-4.63v-10h2.83a4 4 0 002.76-.76 3.202 3.202 0 00.83-2.48V46.34h11.81l-.01 43.49zm-11-49.32a5.904 5.904 0 01-2-4.52 6 6 0 012-4.59 7.14 7.14 0 015.11-1.83 7.049 7.049 0 015 1.83 6 6 0 012 4.59 5.909 5.909 0 01-2 4.52 7.049 7.049 0 01-5 1.83 7.14 7.14 0 01-5.12-1.83h.01zM320.73 83a17.62 17.62 0 01-7.11-6.9A20.584 20.584 0 01311 65.6a20.456 20.456 0 012.62-10.46 17.802 17.802 0 017.18-6.93 22.77 22.77 0 0120.43 0 17.802 17.802 0 017.18 6.93 20.456 20.456 0 012.62 10.46 20.282 20.282 0 01-2.65 10.46 18 18 0 01-7.22 6.94 21.57 21.57 0 01-10.25 2.42A21.12 21.12 0 01320.73 83zm15.94-10.28c1.587-1.66 2.38-4.03 2.38-7.11s-.77-5.45-2.31-7.11a7.85 7.85 0 00-11.42 0c-1.547 1.607-2.32 3.973-2.32 7.1s.747 5.497 2.24 7.11a7.248 7.248 0 005.63 2.48 7.677 7.677 0 005.8-2.48v.01zM364 83.69a15.45 15.45 0 01-6.17-4.69 12.52 12.52 0 01-2.56-6.73h11.67a4.5 4.5 0 001.86 3.24 6.591 6.591 0 004.07 1.24 5.76 5.76 0 003.42-.86 2.621 2.621 0 001.21-2.24 2.593 2.593 0 00-1.73-2.45 34.23 34.23 0 00-5.59-1.76 53.832 53.832 0 01-6.9-2 11.865 11.865 0 01-4.76-3.44 9.203 9.203 0 01-2-6.25 10.668 10.668 0 011.82-6 12.316 12.316 0 015.39-4.31 20.588 20.588 0 018.45-1.59c4.84 0 8.64 1.2 11.43 3.59a14 14 0 014.8 9.52H377.5a4.671 4.671 0 00-1.76-3.17 6.12 6.12 0 00-3.9-1.17 5.41 5.41 0 00-3.18.79 2.542 2.542 0 00-1.1 2.17 2.663 2.663 0 001.76 2.42 28.706 28.706 0 005.49 1.66 60.02 60.02 0 017 2.17 12.004 12.004 0 014.73 3.45 9.786 9.786 0 012.1 6.39 10.13 10.13 0 01-1.9 6 12.5 12.5 0 01-5.45 4.17 20.903 20.903 0 01-8.29 1.57 22.12 22.12 0 01-9-1.72zm38.56 0a15.42 15.42 0 01-6.22-4.69 12.432 12.432 0 01-2.55-6.73h11.66a4.48 4.48 0 001.87 3.24 6.57 6.57 0 004.07 1.24 5.8 5.8 0 003.42-.86 2.64 2.64 0 001.19-2.28 2.593 2.593 0 00-1.73-2.45 34.534 34.534 0 00-5.59-1.76 53.832 53.832 0 01-6.9-2A12.004 12.004 0 01397 64a9.248 9.248 0 01-2-6.25 10.606 10.606 0 011.83-6 12.268 12.268 0 015.39-4.31 20.521 20.521 0 018.45-1.59c4.827 0 8.633 1.197 11.42 3.59a13.926 13.926 0 014.8 9.52H416a4.73 4.73 0 00-1.77-3.17 6.091 6.091 0 00-3.89-1.17 5.39 5.39 0 00-3.18.79 2.513 2.513 0 00-1.1 2.17 2.643 2.643 0 001.78 2.42 28.804 28.804 0 005.48 1.66 58.814 58.814 0 017 2.17 11.877 11.877 0 014.68 3.46 9.79 9.79 0 012.11 6.39 10.2 10.2 0 01-1.9 6 12.55 12.55 0 01-5.45 4.17 20.899 20.899 0 01-8.25 1.52 22.121 22.121 0 01-8.95-1.68z"/>
  </g>
  <defs>
    <clipPath id="bAE_On0R3a">
      <path fill="#fff" d="M0 0h427.13v132.79H0z"/>
    </clipPath>
  </defs>
</svg>
